<svg width="75" height="75" viewBox="0 0 75 75" fill="none" xmlns="http://www.w3.org/2000/svg">
<path d="M58.2 23.7C58.2 39.225 37.5 54.75 37.5 54.75C37.5 54.75 16.8 39.225 16.8 23.7C16.8 18.21 18.9809 12.9449 22.8629 9.06289C26.7449 5.18089 32.01 3 37.5 3C42.99 3 48.2551 5.18089 52.1371 9.06289C56.0191 12.9449 58.2 18.21 58.2 23.7Z" stroke="white" stroke-width="5" stroke-linecap="round" stroke-linejoin="round"/>
<path d="M37.5 30.6C41.3108 30.6 44.4 27.5108 44.4 23.7C44.4 19.8893 41.3108 16.8 37.5 16.8C33.6893 16.8 30.6 19.8893 30.6 23.7C30.6 27.5108 33.6893 30.6 37.5 30.6Z" stroke="white" stroke-width="5" stroke-linecap="round" stroke-linejoin="round"/>
<path d="M26.5808 44.4001H13.35C12.648 44.4384 11.9745 44.6902 11.4196 45.1218C10.8647 45.5534 10.4549 46.1442 10.245 46.8151L3.345 67.5151C3 67.8601 3 68.2051 3 68.5501C3 70.6201 4.38 72.0001 6.45 72.0001H68.55C70.62 72.0001 72 70.6201 72 68.5501C72 68.2051 72 67.8601 71.655 67.5151L64.755 46.8151C64.5451 46.1442 64.1353 45.5534 63.5804 45.1218C63.0255 44.6902 62.352 44.4384 61.65 44.4001H48.4193" stroke="white" stroke-width="5" stroke-linecap="round" stroke-linejoin="round"/>
</svg>
