<svg width="75" height="75" viewBox="0 0 75 75" fill="none" xmlns="http://www.w3.org/2000/svg">
<path d="M44.3143 3.00034C51.3682 3.74396 57.957 6.87409 62.9913 11.8731C68.0256 16.8721 71.2037 23.4405 72 30.492M44.3143 16.85C47.718 17.5215 50.8413 19.2011 53.2789 21.6708C55.7165 24.1405 57.3558 27.2862 57.9841 30.6998M71.827 54.6598V65.047C71.8309 66.0113 71.6335 66.9658 71.2473 67.8493C70.8612 68.7329 70.2949 69.526 69.5847 70.1779C68.8745 70.8298 68.036 71.3261 67.123 71.635C66.21 71.944 65.2425 72.0587 64.2826 71.9719C53.6337 70.8129 43.4047 67.1723 34.4167 61.3422C26.055 56.0263 18.9658 48.9335 13.6525 40.5677C7.80496 31.5343 4.16532 21.2505 3.02809 10.5484C2.94161 9.59095 3.05534 8.62595 3.36205 7.71486C3.66876 6.80377 4.16172 5.96656 4.80954 5.25653C5.45737 4.54649 6.24587 3.9792 7.12484 3.59076C8.00382 3.20231 8.954 3.00124 9.9149 3.00034H20.297C21.9765 2.9838 23.6047 3.57883 24.8782 4.67453C26.1516 5.77023 26.9834 7.29183 27.2184 8.95571C27.6555 12.2801 28.4682 15.5441 29.6409 18.6851C30.1066 19.9244 30.2073 21.2713 29.9313 22.5661C29.6553 23.8609 29.0141 25.0495 28.0836 25.9909L23.6885 30.3881C28.615 39.0565 35.7887 46.2337 44.4528 51.1627L48.8479 46.7654C49.7888 45.8345 50.9767 45.193 52.2709 44.9168C53.5651 44.6407 54.9113 44.7415 56.15 45.2073C59.2894 46.3807 62.5518 47.1938 65.8746 47.631C67.5556 47.8683 69.0909 48.7155 70.1884 50.0114C71.2859 51.3074 71.8691 52.9617 71.827 54.6598Z" stroke="white" stroke-width="5" stroke-linecap="round" stroke-linejoin="round"/>
</svg>
