<svg width="75" height="75" viewBox="0 0 75 75" fill="none" xmlns="http://www.w3.org/2000/svg">
<path d="M69.24 25.08C70.965 26.391 72 28.4265 72 30.6V65.1C72 66.93 71.273 68.685 69.979 69.979C68.685 71.273 66.93 72 65.1 72H9.9C8.07001 72 6.31496 71.273 5.02096 69.979C3.72696 68.685 3 66.93 3 65.1V30.6C3 29.5288 3.2494 28.4723 3.72845 27.5142C4.2075 26.5561 4.90305 25.7227 5.76 25.08L33.36 4.38C34.5544 3.48423 36.007 3 37.5 3C38.993 3 40.4456 3.48423 41.64 4.38L69.24 25.08Z" stroke="white" stroke-width="5" stroke-linecap="round" stroke-linejoin="round"/>
<path d="M72 30.6001L41.0535 50.2651C39.9884 50.9324 38.7569 51.2863 37.5 51.2863C36.2431 51.2863 35.0116 50.9324 33.9465 50.2651L3 30.6001" stroke="white" stroke-width="5" stroke-linecap="round" stroke-linejoin="round"/>
</svg>
